<svg width="45" height="30" viewBox="0 0 45 30" fill="none" xmlns="http://www.w3.org/2000/svg">
<path d="M28.891 14.6939C28.891 22.3019 22.6812 28.4694 15.0211 28.4694C7.36109 28.4694 1.15131 22.3019 1.15131 14.6939C1.15131 7.08588 7.36109 0.918365 15.0211 0.918365C22.6812 0.918365 28.891 7.08588 28.891 14.6939Z" fill="#1D253B"/>
<path d="M43.8487 14.6939C43.8487 22.3019 37.6998 28.4694 30.1148 28.4694C22.5298 28.4694 16.3809 22.3019 16.3809 14.6939C16.3809 7.08588 22.5298 0.918365 30.1148 0.918365C37.6998 0.918365 43.8487 7.08588 43.8487 14.6939Z" fill="#F5BA56"/>
<path d="M22.6051 26.2296C26.3903 23.7697 28.891 19.5219 28.891 14.6939C28.891 9.86596 26.3903 5.61805 22.6051 3.15829C18.8571 5.61805 16.3809 9.86596 16.3809 14.6939C16.3809 19.5219 18.8571 23.7697 22.6051 26.2296Z" fill="#0A0C14"/>
</svg>
